<?xml version="1.0" standalone="no"?>
<!DOCTYPE svg PUBLIC "-//W3C//DTD SVG 20010904//EN"
 "http://www.w3.org/TR/2001/REC-SVG-20010904/DTD/svg10.dtd">
<svg version="1.0" xmlns="http://www.w3.org/2000/svg"
 width="400.000000pt" height="604.000000pt" viewBox="0 0 400.000000 604.000000"
 preserveAspectRatio="xMidYMid meet">

<g transform="translate(0.000000,604.000000) scale(0.100000,-0.100000)"
fill="#000000" stroke="none">
<path d="M1849 5828 c0 -13 -2 -80 -3 -150 l-2 -128 148 0 148 0 0 150 0 150
-145 0 c-143 0 -145 0 -146 -22z m138 -93 c4 -120 8 -135 38 -135 13 0 27 5
31 12 4 6 8 57 8 112 l1 101 28 3 c31 4 29 11 27 -123 -2 -128 -11 -140 -106
-140 -83 0 -94 12 -94 106 0 64 -2 69 -27 81 -28 13 -39 38 -29 64 4 11 20 14
63 12 l58 -3 2 -90z"/>
<path d="M1450 5400 l0 -60 38 2 37 1 -33 4 c-27 4 -33 8 -30 26 2 15 12 24
33 28 l30 7 -33 1 c-26 1 -33 5 -30 18 2 10 16 21 33 24 29 6 29 7 -7 8 l-38
1 0 -60z"/>
<path d="M1632 5412 c-2 -55 -23 -80 -44 -51 -8 12 -9 11 -5 -1 5 -20 46 -25
53 -7 3 8 3 36 1 63 l-3 49 -2 -53z"/>
<path d="M1723 5400 c0 -36 2 -50 4 -32 4 31 7 33 36 30 28 -3 32 -6 29 -30
-2 -16 1 -28 7 -28 6 0 11 12 11 28 l0 27 13 -25 c14 -28 51 -38 73 -20 17 15
19 81 2 98 -19 19 -55 14 -72 -10 -13 -18 -16 -19 -16 -5 0 9 -5 17 -11 17 -6
0 -9 -9 -6 -20 4 -17 0 -20 -28 -20 -29 0 -34 4 -38 28 -2 15 -4 -2 -4 -38z
m175 12 c4 -38 -12 -62 -39 -62 -26 0 -42 42 -29 76 8 20 16 25 38 22 23 -2
28 -8 30 -36z"/>
<path d="M1927 5453 c-4 -3 -7 -30 -7 -60 l0 -53 33 0 c18 0 38 5 44 11 8 8
13 8 17 0 9 -15 49 -14 64 1 9 9 12 9 12 0 0 -17 78 -12 84 5 8 19 63 16 74
-4 15 -25 37 -9 51 37 14 47 23 44 41 -12 6 -21 15 -38 20 -38 4 0 14 24 21
53 l14 52 6 -55 6 -55 2 50 2 50 23 -50 24 -50 23 55 24 55 6 -55 6 -55 1 57
c1 31 -2 59 -7 62 -5 3 -19 -18 -31 -47 l-23 -52 -23 53 c-28 63 -45 64 -58 4
-11 -53 -22 -53 -36 -2 -15 57 -26 57 -46 -2 -14 -43 -19 -49 -25 -33 -5 14
-8 15 -9 5 -1 -8 -11 8 -24 35 l-23 50 -21 -40 c-32 -59 -47 -75 -71 -75 -16
0 -21 6 -21 25 0 27 10 31 40 15 16 -9 18 -6 16 28 -1 34 -4 37 -33 40 -32 3
-33 2 -33 -37 l0 -40 -35 20 c-19 12 -35 25 -35 30 0 17 30 22 47 8 14 -12 16
-12 11 1 -3 9 -17 15 -34 15 -43 0 -46 -38 -5 -60 36 -18 41 -45 10 -45 -31 0
-72 50 -56 68 9 11 7 17 -8 28 -20 15 -47 18 -58 7z m37 -9 c25 -10 19 -34 -9
-34 -18 0 -25 5 -25 20 0 21 8 24 34 14z m184 -16 c3 -13 -3 -18 -22 -18 -20
0 -26 5 -26 21 0 15 5 20 22 17 13 -2 24 -11 26 -20z m82 -30 c0 -11 -8 -18
-20 -18 -23 0 -23 0 -9 37 8 22 12 24 19 13 6 -8 10 -23 10 -32z m-251 -7 c21
-13 5 -41 -24 -41 -18 0 -25 5 -25 18 0 31 21 41 49 23z"/>
<path d="M2241 5450 c0 -8 4 -24 9 -35 5 -13 9 -14 9 -5 0 8 -4 24 -9 35 -5
13 -9 14 -9 5z"/>
<path d="M1000 5248 c0 -12 48 -10 55 2 3 5 -7 8 -25 7 -16 -1 -30 -5 -30 -9z"/>
<path d="M1205 5250 c3 -5 8 -10 11 -10 2 0 4 5 4 10 0 6 -5 10 -11 10 -5 0
-7 -4 -4 -10z"/>
<path d="M1253 5253 c9 -2 25 -2 35 0 9 3 1 5 -18 5 -19 0 -27 -2 -17 -5z"/>
<path d="M1310 5253 c0 -7 830 -7 1950 0 234 1 -109 3 -762 5 -654 1 -1188 -1
-1188 -5z"/>
<path d="M453 5243 c97 -2 257 -2 355 0 97 1 17 2 -178 2 -195 0 -275 -1 -177
-2z"/>
<path d="M2705 4850 c-94 -38 -113 -207 -33 -282 26 -24 38 -28 88 -28 93 0
140 53 140 161 0 63 -24 116 -64 140 -32 20 -96 24 -131 9z m116 -35 c19 -12
39 -72 39 -115 0 -105 -72 -162 -150 -120 -28 15 -54 92 -47 142 12 93 86 137
158 93z"/>
<path d="M2019 4721 c-30 -72 -57 -131 -60 -131 -4 0 -10 16 -13 35 -4 19 -14
42 -24 51 -12 13 -14 18 -4 22 15 5 42 54 42 77 0 9 -11 27 -25 40 -22 23 -32
25 -110 25 l-86 0 3 -152 c3 -128 5 -153 18 -153 12 0 16 16 18 68 l3 68 56
-3 c62 -3 60 -1 77 -98 5 -31 10 -36 36 -38 26 -2 32 2 46 37 18 44 27 48 109
47 58 -1 60 -2 76 -35 14 -30 60 -63 59 -43 0 4 -29 75 -63 157 -84 199 -86
199 -158 26z m-114 65 c12 -18 13 -30 6 -50 -10 -24 -15 -26 -71 -26 l-60 0 0
50 0 50 55 0 c46 0 57 -4 70 -24z m219 -67 c14 -33 26 -62 26 -65 0 -2 -27 -4
-60 -4 -33 0 -60 2 -60 5 0 3 9 24 19 48 10 23 21 50 25 60 10 30 23 19 50
-44z"/>
<path d="M1220 4829 c0 -6 -27 -74 -60 -152 -33 -77 -58 -143 -55 -145 11 -11
37 11 51 43 8 19 18 35 22 35 4 0 35 2 68 4 34 2 66 1 72 -3 6 -4 18 -23 27
-44 14 -34 33 -46 47 -31 3 3 -14 53 -39 112 -25 59 -52 126 -60 150 -13 36
-19 42 -44 42 -16 0 -29 -5 -29 -11z m60 -101 c12 -29 24 -59 27 -65 4 -10
-11 -13 -56 -13 -34 0 -61 2 -61 4 0 13 54 126 60 126 4 0 17 -24 30 -52z"/>
<path d="M1540 4691 l0 -149 58 -4 c73 -4 124 4 129 19 3 9 -18 13 -74 15 -73
3 -78 4 -81 27 -2 12 -1 34 2 47 6 22 11 24 70 24 46 0 65 4 69 14 9 22 -2 26
-69 26 -60 0 -62 1 -65 28 -9 67 -4 72 72 72 55 0 69 3 69 15 0 12 -17 15 -90
15 l-90 0 0 -149z"/>
<path d="M2360 4690 c0 -113 3 -150 13 -151 51 -3 154 4 168 12 32 16 60 67
66 118 4 39 1 59 -17 95 -29 61 -60 76 -155 76 l-75 0 0 -150z m163 99 c52
-40 58 -144 11 -194 -19 -21 -32 -25 -79 -25 l-55 0 0 120 0 120 49 0 c34 0
56 -6 74 -21z"/>
<path d="M2084 4482 c-30 -3 -33 -7 -47 -63 -15 -59 -15 -59 7 -59 18 0 28 13
49 62 15 34 26 62 24 62 -1 1 -16 0 -33 -2z"/>
<path d="M2879 4341 c-127 -26 -196 -150 -177 -315 16 -127 68 -193 171 -216
106 -23 203 23 253 120 22 44 31 182 15 246 -31 121 -141 190 -262 165z m115
-62 c14 -7 38 -30 53 -52 26 -38 28 -47 28 -146 0 -123 -16 -167 -71 -201 -52
-33 -92 -35 -143 -8 -68 35 -86 78 -86 203 0 114 14 155 68 193 36 25 108 30
151 11z"/>
<path d="M850 4070 l0 -260 30 0 30 0 0 260 0 260 -30 0 -30 0 0 -260z"/>
<path d="M958 4080 c-2 -138 -1 -255 0 -260 2 -6 15 -10 28 -10 l24 0 1 138
c1 75 3 153 4 172 1 19 2 55 3 80 1 24 6 40 10 35 10 -12 53 -121 115 -295 43
-119 47 -125 75 -128 29 -3 30 -1 65 90 19 51 51 139 71 196 61 174 60 175 66
-68 l5 -215 30 0 30 0 3 253 2 252 -22 2 c-34 2 -90 -1 -94 -5 -2 -2 -33 -86
-68 -187 -36 -101 -70 -188 -75 -193 -7 -7 -13 -2 -20 14 -14 31 -105 283
-121 332 -10 34 -15 37 -48 38 -20 0 -47 2 -59 5 l-22 4 -3 -250z"/>
<path d="M1597 4322 l-77 -3 2 -252 3 -252 33 -3 32 -3 0 115 0 116 78 0 c127
1 202 52 202 138 0 43 -26 99 -55 118 -28 18 -122 30 -218 26z m150 -62 c54
-19 69 -90 30 -136 -21 -24 -32 -28 -105 -32 l-82 -5 0 92 0 91 64 0 c34 0 77
-5 93 -10z"/>
<path d="M2253 4323 l-23 -4 0 -250 0 -249 30 0 30 0 0 110 0 109 36 7 c48 9
124 -2 145 -22 11 -10 22 -43 29 -87 18 -120 17 -117 50 -117 35 0 37 12 20
120 -15 92 -18 98 -52 116 l-30 16 30 18 c44 27 62 59 62 110 0 49 -17 76 -63
105 -22 14 -52 19 -135 20 -59 1 -117 0 -129 -2z m236 -77 c27 -25 28 -85 2
-117 -18 -22 -27 -24 -108 -24 l-88 0 -3 69 c-4 100 -6 99 92 95 65 -3 89 -8
105 -23z"/>
<path d="M2612 4078 l3 -253 28 -3 c20 -3 27 1 27 15 1 29 1 311 0 406 l0 87
-30 0 -30 0 2 -252z"/>
<path d="M1887 4078 c2 -134 6 -248 8 -255 2 -6 18 -10 37 -9 18 2 86 4 151 5
l117 1 0 28 0 27 -122 0 -123 0 -3 83 c-2 73 -1 82 15 83 10 1 23 2 28 4 6 1
49 3 98 3 86 2 87 2 87 27 l0 25 -115 0 -115 0 0 80 0 80 33 2 c17 0 37 2 42
3 6 2 45 3 88 4 75 1 77 2 77 26 l0 25 -153 0 -153 0 3 -242z"/>
<path d="M1520 3650 c-25 -25 -25 -52 0 -75 l20 -18 -20 -14 c-25 -18 -26 -64
-2 -85 27 -23 48 -28 86 -17 56 16 73 62 35 100 -20 20 -20 23 -5 31 24 13 20
64 -6 82 -31 22 -84 20 -108 -4z m86 -8 c19 -13 23 -41 8 -57 -25 -24 -63 -19
-76 11 -11 22 -10 28 7 40 21 15 44 18 61 6z m-12 -98 c45 -17 38 -84 -9 -84
-40 0 -55 11 -55 41 0 37 29 56 64 43z"/>
<path d="M2214 3663 c-56 -11 -74 -78 -34 -121 22 -23 74 -30 85 -12 13 21 23
-1 14 -32 -14 -51 -55 -64 -86 -28 -20 24 -33 26 -33 6 0 -21 40 -46 73 -46
16 0 38 10 52 25 21 21 25 33 25 89 0 35 -3 72 -6 81 -5 13 -57 48 -66 44 -2
-1 -13 -4 -24 -6z m59 -44 c5 -9 7 -28 3 -42 -7 -31 -48 -46 -71 -27 -18 15
-20 76 -2 84 22 9 60 1 70 -15z"/>
<path d="M2345 3646 c-16 -13 -27 -28 -23 -32 4 -4 14 -1 23 6 8 7 16 11 16 9
2 -5 7 -90 8 -146 1 -45 21 -62 21 -18 0 24 3 25 60 25 l60 0 0 -30 c0 -16 5
-30 10 -30 6 0 10 14 10 30 0 25 4 30 25 30 31 0 33 17 3 22 -21 3 -23 8 -23
73 0 48 -4 73 -13 78 -15 10 -22 2 -79 -85 -21 -32 -41 -58 -45 -58 -5 0 -8
34 -8 75 0 41 -3 75 -7 75 -5 0 -21 -11 -38 -24z m165 -87 l0 -49 -41 0 c-22
0 -39 4 -37 8 11 27 64 99 71 95 4 -2 7 -26 7 -54z"/>
<path d="M1433 3643 c-29 -20 -32 -49 -4 -33 11 5 22 10 25 10 3 0 6 -40 6
-89 0 -50 5 -93 10 -96 6 -3 10 2 11 12 7 188 6 213 -10 212 -9 0 -26 -7 -38
-16z"/>
<path d="M1650 3650 c0 -5 27 -10 60 -12 l60 -3 -44 -97 c-37 -83 -41 -98 -27
-98 13 0 28 26 56 95 21 52 43 95 48 95 6 0 7 -21 3 -50 -5 -40 -4 -50 7 -50
8 0 20 7 27 15 15 18 51 20 68 3 17 -17 15 -64 -4 -82 -21 -21 -40 -20 -64 4
-11 11 -24 20 -30 20 -18 0 -10 -29 12 -44 77 -54 172 50 107 115 -17 17 -29
20 -61 15 l-39 -6 3 32 c3 32 4 33 56 36 28 2 52 7 52 12 0 5 -65 9 -145 9
-82 0 -145 -4 -145 -9z"/>
<path d="M2093 3643 c-13 -8 -23 -23 -23 -31 0 -12 3 -13 12 -4 30 30 38 14
38 -83 0 -114 17 -128 22 -17 6 149 -1 169 -49 135z"/>
<path d="M1980 3550 c0 -5 15 -10 34 -10 19 0 38 5 41 10 4 6 -10 10 -34 10
-23 0 -41 -4 -41 -10z"/>
<path d="M840 2023 l0 -1153 648 0 c603 -1 1595 -1 1635 0 16 0 17 60 15 1153
l-3 1152 -1147 0 -1148 0 0 -1152z m2237 837 c-3 -192 -8 -264 -17 -275 -8 -9
-16 -12 -19 -6 -8 11 -62 18 -77 8 -7 -4 -14 0 -18 8 -3 9 -19 15 -41 15 -19
0 -35 5 -35 10 0 6 -9 10 -19 10 -12 0 -23 11 -30 30 -13 38 -25 39 -16 1 l6
-29 -48 10 c-26 6 -57 11 -69 12 -11 1 -31 10 -44 19 -19 13 -26 14 -32 4 -4
-6 -8 -7 -8 -2 0 18 -51 35 -71 25 -14 -8 -19 -6 -24 10 -3 11 -10 20 -15 20
-14 0 -41 -31 -35 -41 8 -13 -9 -11 -22 2 -15 15 -133 25 -133 11 0 -6 6 -13
13 -15 6 -3 2 -6 -10 -6 -12 -1 -23 -7 -26 -13 -2 -7 -3 -5 -2 5 2 9 -1 17 -6
17 -15 0 -79 -34 -79 -42 0 -4 -6 -8 -13 -8 -8 0 -29 -7 -47 -17 -31 -15 -32
-17 -15 -30 11 -7 15 -13 10 -13 -5 0 -17 7 -27 17 -10 9 -18 11 -18 5 0 -5
-12 -9 -26 -7 -19 2 -24 -1 -19 -13 4 -12 3 -12 -9 -3 -17 14 -62 5 -70 -15
-3 -8 -13 -14 -23 -14 -10 0 -42 -12 -72 -27 -39 -20 -55 -25 -58 -15 -3 6
-10 9 -15 5 -11 -6 -110 -5 -148 2 -11 2 -20 0 -20 -5 0 -5 -7 -7 -15 -4 -8 4
-15 1 -15 -5 0 -6 -5 -11 -11 -11 -5 0 -7 5 -4 10 4 6 -12 10 -39 10 -25 0
-46 -4 -46 -9 0 -12 -70 8 -91 26 -8 7 -28 13 -43 13 -38 0 -60 24 -47 49 6
11 14 21 18 23 5 3 1 3 -7 1 -8 -2 -4 6 10 18 14 11 20 18 14 15 -7 -3 -15 1
-18 10 -9 24 -7 36 6 32 17 -6 48 23 48 44 0 10 7 18 16 18 8 0 13 4 9 9 -3 6
6 8 20 5 19 -3 23 -1 19 11 -4 8 -1 15 5 15 6 0 11 -6 11 -14 0 -18 29 -15 63
8 30 21 35 47 11 71 -9 8 -13 22 -10 31 3 8 -1 17 -10 21 -12 4 -9 10 13 24
30 20 63 25 63 9 0 -5 -5 -10 -12 -10 -6 0 -8 -3 -5 -6 4 -4 13 -2 20 4 8 7
17 9 20 5 4 -3 9 2 13 11 3 9 15 16 25 16 15 0 19 7 19 32 0 31 0 31 21 12 18
-16 19 -19 5 -22 -9 -2 -16 -7 -16 -12 0 -4 16 -4 35 0 19 4 38 4 41 -1 5 -9
102 -5 111 5 10 10 -10 27 -24 21 -13 -5 -14 -3 -3 10 7 9 16 12 19 6 14 -23
73 -3 114 38 l42 41 -30 0 c-45 0 -17 18 35 22 25 2 271 5 548 6 l503 2 -4
-260z m-1127 210 c0 -5 -4 -10 -10 -10 -5 0 -10 5 -10 10 0 6 5 10 10 10 6 0
10 -4 10 -10z m-111 -14 c11 -14 6 -15 -27 -7 -4 1 8 21 12 21 2 0 9 -6 15
-14z m56 -36 c3 -5 1 -10 -4 -10 -6 0 -11 5 -11 10 0 6 2 10 4 10 3 0 8 -4 11
-10z m-595 -304 c0 -2 -7 -7 -16 -10 -8 -3 -12 -2 -9 4 6 10 25 14 25 6z m-80
-63 c0 -5 -5 -15 -10 -23 -7 -12 -9 -10 -7 8 1 19 17 33 17 15z m1040 -1 c0
-4 -9 -8 -20 -8 -11 0 -20 4 -20 8 0 4 9 8 20 8 11 0 20 -4 20 -8z m-25 -32
c-3 -5 -12 -10 -18 -10 -7 0 -6 4 3 10 19 12 23 12 15 0z m-935 -25 c-7 -8
-19 -15 -26 -15 -8 0 -14 7 -14 15 0 10 10 15 26 15 22 0 25 -2 14 -15z m873
0 c-3 -9 -8 -14 -10 -11 -3 3 -2 9 2 15 9 16 15 13 8 -4z m467 3 c0 -4 -7 -8
-15 -8 -8 0 -15 4 -15 8 0 5 7 9 15 9 8 0 15 -4 15 -9z m-1529 -41 c-16 -16
-25 -1 -10 16 8 8 16 11 18 5 2 -5 -2 -15 -8 -21z m1053 4 c4 -5 -3 -7 -14 -4
-23 6 -26 13 -6 13 8 0 17 -4 20 -9z m-1119 -20 c-3 -6 -11 -8 -17 -5 -6 4 -5
9 3 15 16 10 23 4 14 -10z m1195 -54 c1 -20 -27 21 -33 48 -7 30 -7 30 13 -5
10 -19 19 -39 20 -43z m462 50 c4 -19 0 -23 -21 -24 -20 -1 -22 0 -8 6 10 4
18 10 18 14 -4 33 5 36 11 4z m-538 -8 c5 -5 -5 -4 -24 1 -18 5 -35 12 -39 16
-9 9 53 -7 63 -17z m206 6 c5 3 11 1 15 -5 3 -5 -7 -12 -22 -16 -15 -3 -33 -7
-40 -9 -7 -2 -15 0 -18 5 -4 6 1 10 9 10 10 0 13 6 9 16 -5 14 -3 15 16 5 12
-7 26 -9 31 -6z m-345 -5 c-3 -5 -1 -10 6 -10 7 0 10 -3 6 -6 -9 -9 -28 6 -22
17 4 5 8 9 11 9 3 0 2 -4 -1 -10z m248 3 c-7 -2 -19 -2 -25 0 -7 3 -2 5 12 5
14 0 19 -2 13 -5z m467 -3 c0 -5 -4 -10 -10 -10 -5 0 -10 5 -10 10 0 6 5 10
10 10 6 0 10 -4 10 -10z m-770 -10 c-8 -5 -19 -10 -25 -10 -5 0 -3 5 5 10 8 5
20 10 25 10 6 0 3 -5 -5 -10z m34 -16 c3 -8 2 -12 -4 -9 -6 3 -10 10 -10 16 0
14 7 11 14 -7z m240 -77 c6 -2 17 2 24 9 11 12 9 14 -8 14 -11 0 -20 5 -20 10
0 6 9 10 19 10 11 0 22 6 24 13 3 7 6 5 6 -5 1 -25 32 -58 56 -59 17 -1 16 -2
-5 -9 -24 -8 -24 -8 -2 -9 12 -1 30 -10 39 -20 9 -11 21 -17 26 -14 6 3 7 1 3
-5 -4 -7 -1 -12 8 -12 21 0 20 -14 -1 -36 -13 -13 -14 -19 -5 -22 6 -2 12 -10
12 -17 0 -7 9 -15 21 -18 15 -4 19 -2 15 9 -3 8 -1 14 4 14 14 0 12 -37 -2
-46 -6 -4 -14 -2 -16 4 -2 7 -8 12 -13 12 -6 0 -7 -4 -4 -10 3 -5 -1 -10 -10
-10 -10 0 -13 -5 -9 -12 5 -8 1 -7 -10 2 -16 12 -16 15 -2 20 11 3 13 9 6 20
-5 8 -10 25 -10 38 0 32 -20 27 -20 -5 -1 -23 -2 -25 -10 -11 -15 25 -1 46 33
51 l32 3 -32 8 c-18 5 -30 12 -28 17 3 4 1 10 -5 14 -5 3 -10 -1 -10 -9 0 -22
-20 -20 -20 2 -1 13 -4 11 -15 -8 -18 -31 -18 -41 -2 -37 7 1 13 -11 15 -28 2
-16 13 -38 25 -47 23 -18 5 -20 -22 -4 -11 7 -13 5 -8 -7 7 -19 -1 -21 -23 -7
-13 9 -13 10 0 10 13 0 13 1 0 10 -13 8 -12 10 3 10 9 0 17 7 17 16 0 14 -3
14 -16 3 -13 -10 -17 -10 -25 2 -11 18 -11 29 0 29 5 0 11 -8 14 -17 2 -10 3
0 3 22 -1 32 -9 48 -39 78 -21 20 -45 37 -55 37 -13 0 -14 2 -4 9 11 7 11 11
-2 24 -17 17 -21 39 -9 51 5 4 16 -13 26 -38 11 -24 24 -47 31 -49z m-90 67
c5 -13 4 -14 -7 -6 -14 12 -27 7 -27 -10 0 -5 5 -6 12 -2 6 4 8 3 5 -4 -4 -5
-4 -18 0 -28 6 -16 7 -16 14 2 7 17 8 17 8 1 1 -10 6 -15 11 -12 6 3 10 2 10
-3 0 -24 -31 -20 -47 6 -10 15 -23 33 -30 40 -17 17 -16 23 1 16 8 -3 17 -1
21 5 9 16 22 13 29 -5z m587 -6 c3 -5 20 -10 37 -11 18 -1 32 -6 32 -10 0 -4
-15 -7 -33 -5 -18 1 -38 -2 -45 -6 -7 -4 -12 -2 -13 6 0 10 -2 10 -6 1 -2 -7
-9 -13 -14 -13 -5 0 -8 6 -6 13 1 7 -6 11 -18 9 -18 -2 -17 -1 3 11 27 16 54
18 63 5z m56 6 c-3 -3 -12 -4 -19 -1 -8 3 -5 6 6 6 11 1 17 -2 13 -5z m-699
-35 c10 -14 9 -17 -8 -22 -11 -3 -18 -1 -14 4 3 5 -4 9 -15 9 -31 0 -34 18 -4
22 16 2 28 3 28 3 1 0 6 -7 13 -16z m549 6 c0 -8 -4 -12 -9 -9 -4 3 -8 9 -8
15 0 5 4 9 8 9 5 0 9 -7 9 -15z m-267 -30 c0 -3 -14 -5 -30 -5 -26 0 -29 2
-18 14 9 10 18 11 31 5 9 -6 17 -12 17 -14z m175 15 c3 -5 1 -10 -4 -10 -6 0
-11 5 -11 10 0 6 2 10 4 10 3 0 8 -4 11 -10z m-1038 -12 c14 -23 12 -37 -5
-31 -21 8 -32 24 -26 35 8 12 22 10 31 -4z m-182 -8 c-3 -5 -11 -10 -16 -10
-6 0 -7 5 -4 10 3 6 11 10 16 10 6 0 7 -4 4 -10z m350 -18 c-3 -3 -11 0 -18 7
-9 10 -8 11 6 5 10 -3 15 -9 12 -12z m1119 2 c3 -8 2 -12 -4 -9 -6 3 -10 10
-10 16 0 14 7 11 14 -7z m-1118 -60 c-2 -6 16 -28 41 -50 88 -77 85 -73 69
-90 -14 -13 -19 -13 -45 0 -16 9 -33 25 -36 37 -4 11 -9 18 -12 15 -4 -3 -16
8 -29 25 -14 20 -25 26 -29 19 -4 -7 7 -31 24 -55 30 -43 41 -72 21 -60 -6 4
-7 11 -4 17 4 6 -1 6 -14 -1 -28 -15 -84 -3 -80 18 1 9 -2 17 -7 18 -6 2 -10
-7 -10 -19 0 -12 -7 -24 -15 -26 -8 -3 -18 -9 -21 -15 -4 -6 -13 -5 -25 1 -17
10 -16 12 14 18 35 7 41 18 16 28 -8 3 -13 2 -10 -3 3 -5 -10 -11 -29 -13 -26
-3 -34 -1 -31 9 8 19 -11 16 -23 -4 -6 -10 -11 -13 -11 -6 0 8 -14 10 -42 8
-40 -4 -41 -3 -24 10 11 9 29 12 40 9 21 -6 21 -6 1 9 -20 15 -19 16 8 22 17
5 27 14 27 26 0 10 -5 19 -11 19 -5 0 -8 -4 -5 -9 4 -5 -3 -7 -14 -4 -16 4
-19 2 -14 -11 3 -9 1 -16 -6 -16 -6 0 -8 5 -5 10 3 6 0 10 -7 10 -7 0 0 8 15
19 16 10 39 16 55 14 22 -4 24 -2 12 7 -11 9 -12 13 -2 17 6 2 10 9 6 14 -7
12 -2 11 32 -5 30 -14 94 -11 94 5 0 5 -6 9 -12 9 -7 1 -2 7 12 14 14 8 28 12
32 10 5 -3 8 1 8 8 1 7 12 0 25 -17 14 -16 23 -35 21 -41z m300 49 c19 -25 17
-32 -6 -26 -14 4 -20 0 -20 -11 0 -9 3 -15 8 -13 4 1 7 -2 7 -8 0 -10 -28 -10
-55 1 -12 5 -10 8 8 15 15 6 22 17 22 34 0 29 17 33 36 8z m139 -3 c10 -11 13
-20 7 -20 -7 0 -12 5 -12 10 0 6 -4 10 -9 10 -5 0 -8 -7 -7 -16 0 -9 -4 -19
-11 -21 -8 -3 -12 6 -10 26 2 36 16 39 42 11z m629 5 c-4 -8 -8 -15 -10 -15
-2 0 -4 7 -4 15 0 8 4 15 10 15 5 0 7 -7 4 -15z m-57 -27 c2 6 12 12 20 12 13
0 13 -3 3 -15 -11 -13 -8 -14 18 -9 18 4 32 1 37 -6 4 -7 1 -10 -11 -8 -14 2
-18 -3 -17 -17 1 -11 -4 -23 -10 -28 -9 -6 -9 -10 1 -14 6 -2 12 -12 11 -21 0
-11 -2 -12 -6 -4 -2 6 -16 12 -29 12 -13 0 -24 4 -24 10 0 5 8 7 18 4 14 -5
14 -3 -3 11 -11 9 -27 20 -35 26 -12 7 -12 10 -2 17 7 5 10 17 6 28 -5 16 -4
17 6 4 9 -11 13 -12 17 -2z m225 -10 c-7 -7 -12 -8 -12 -2 0 14 12 26 19 19 2
-3 -1 -11 -7 -17z m-735 -55 c21 -32 42 -61 48 -65 6 -5 5 -11 -4 -17 -9 -6
-11 -16 -6 -27 7 -18 7 -18 14 -1 6 17 8 17 19 4 17 -20 1 -30 -34 -21 -19 5
-25 4 -20 -5 13 -20 -33 -12 -51 9 -22 26 -43 25 -71 -1 l-23 -20 -33 21 c-39
24 -58 55 -27 45 12 -4 24 1 33 12 17 23 53 43 77 43 11 0 22 6 24 13 4 9 8 8
16 -3 10 -13 11 -13 11 0 0 13 1 13 11 0 8 -12 9 -11 7 5 -3 13 -10 19 -23 17
-17 -2 -18 -1 -5 8 11 9 12 13 3 17 -12 4 -18 23 -8 23 3 0 22 -26 42 -57z
m473 48 c0 -5 -6 -12 -12 -14 -10 -4 -10 -7 -1 -14 12 -9 18 -33 15 -64 -1
-10 -14 -18 -31 -21 -17 -2 -28 -1 -25 4 3 4 14 8 25 8 21 0 23 7 10 29 -8 13
-12 13 -28 1 -17 -14 -17 -14 0 6 9 11 17 33 17 47 0 17 5 27 15 27 8 0 15 -4
15 -9z m210 -1 c0 -5 -4 -10 -9 -10 -6 0 -13 5 -16 10 -3 6 1 10 9 10 9 0 16
-4 16 -10z m-798 -18 c-7 -2 -12 -12 -12 -21 0 -20 -25 -21 -55 -2 -18 11 -17
12 12 7 26 -4 33 -1 38 15 4 11 11 16 18 12 8 -5 8 -8 -1 -11z m529 -25 c-17
-17 -24 -1 -9 22 11 18 14 19 16 5 2 -9 -1 -21 -7 -27z m-34 -19 c-2 -13 -4
-5 -4 17 -1 22 1 32 4 23 2 -10 2 -28 0 -40z m-763 13 c-2 -3 8 -10 23 -17
l28 -12 -28 1 c-15 1 -35 9 -44 19 -14 15 -13 17 6 15 11 0 18 -3 15 -6z m313
3 c-3 -3 -12 -4 -19 -1 -8 3 -5 6 6 6 11 1 17 -2 13 -5z m-153 -19 c-10 -26 6
-36 32 -19 13 9 27 14 31 10 3 -3 1 -6 -5 -6 -7 0 -11 -6 -9 -12 1 -7 -6 -12
-15 -12 -10 1 -18 -3 -18 -10 0 -6 -7 -2 -15 8 -17 22 -20 56 -5 56 5 0 7 -7
4 -15z m297 -17 c11 -21 11 -22 -4 -9 -10 7 -17 17 -17 22 0 15 9 10 21 -13z
m259 2 c0 -5 -5 -10 -11 -10 -5 0 -7 5 -4 10 3 6 8 10 11 10 2 0 4 -4 4 -10z
m-626 -29 c16 -7 26 -7 28 0 2 6 16 1 31 -11 16 -12 26 -25 23 -28 -3 -2 -13
1 -21 8 -12 10 -19 10 -27 2 -8 -8 -6 -13 8 -18 22 -8 78 -63 71 -70 -2 -3
-19 9 -36 25 -18 17 -41 33 -53 37 -28 8 -69 45 -62 56 6 10 7 10 38 -1z m806
-11 c0 -5 -2 -10 -4 -10 -3 0 -8 5 -11 10 -3 6 -1 10 4 10 6 0 11 -4 11 -10z
m-847 -62 c-14 -5 -14 -7 -3 -7 13 -1 13 -2 0 -11 -19 -12 -28 3 -23 35 5 22
6 22 24 7 18 -16 18 -17 2 -24z m-98 22 c3 -5 2 -10 -4 -10 -5 0 -13 5 -16 10
-3 6 -2 10 4 10 5 0 13 -4 16 -10z m1203 -41 c-7 -4 -10 -11 -6 -14 3 -3 13 1
21 10 9 8 19 15 24 15 4 -1 -3 -10 -16 -20 -13 -11 -20 -20 -15 -20 4 0 5 -2
2 -5 -15 -15 -34 8 -30 36 4 24 7 27 19 18 11 -10 11 -14 1 -20z m-46 13 c13
-6 14 -10 5 -23 -11 -14 -15 -14 -42 4 -16 10 -22 17 -12 13 9 -3 17 -1 17 4
0 11 8 12 32 2z m-1329 -9 c-7 -2 -21 -2 -30 0 -10 3 -4 5 12 5 17 0 24 -2 18
-5z m41 -8 c-4 -8 -8 -15 -10 -15 -2 0 -4 7 -4 15 0 8 4 15 10 15 5 0 7 -7 4
-15z m1292 -56 c3 -6 15 -9 25 -6 24 6 25 -9 2 -17 -15 -6 -15 -8 -3 -16 8 -6
10 -10 4 -10 -6 0 -17 6 -24 14 -6 8 -18 12 -26 9 -8 -3 -14 0 -14 6 0 6 -8
11 -17 12 -12 1 -10 4 7 9 35 11 38 11 46 -1z m-61 -28 c3 -5 1 -12 -5 -16 -5
-3 -10 1 -10 9 0 18 6 21 15 7z m95 -60 c-17 -33 -70 -39 -70 -9 0 6 13 8 30
6 20 -3 30 0 30 9 0 7 5 13 10 13 7 0 7 -6 0 -19z m-687 -26 c-13 -10 -20 -10
-25 -2 -9 14 10 27 29 20 11 -4 10 -8 -4 -18z m-335 0 c1 -1 -6 -5 -18 -8 -11
-3 -20 0 -20 5 0 6 -6 5 -15 -2 -14 -12 -22 0 -9 13 6 6 53 -1 62 -8z m297 -5
c3 -6 -1 -7 -9 -4 -18 7 -21 14 -7 14 6 0 13 -4 16 -10z m806 -17 c13 -15 12
-15 -11 -3 -34 17 -36 20 -18 20 9 0 22 -7 29 -17z m-26 -43 c3 -5 1 -10 -4
-10 -6 0 -11 5 -11 10 0 6 2 10 4 10 3 0 8 -4 11 -10z m-787 -65 c-3 -3 -9 2
-12 12 -6 14 -5 15 5 6 7 -7 10 -15 7 -18z m-568 -15 c0 -5 -5 -10 -11 -10 -5
0 -7 5 -4 10 3 6 8 10 11 10 2 0 4 -4 4 -10z m-130 -86 c0 -8 -4 -12 -10 -9
-5 3 -10 10 -10 16 0 5 5 9 10 9 6 0 10 -7 10 -16z m600 -8 c0 -2 -7 -6 -15
-10 -8 -3 -15 -1 -15 4 0 6 7 10 15 10 8 0 15 -2 15 -4z m228 -21 c-3 -3 -9 2
-12 12 -6 14 -5 15 5 6 7 -7 10 -15 7 -18z m-236 -23 c-10 -3 -9 -11 4 -30
l16 -27 -21 21 c-22 20 -20 61 2 47 8 -5 7 -8 -1 -11z m-702 -27 c0 -13 5 -36
10 -52 l10 -28 -30 33 c-29 31 -41 60 -20 47 6 -3 10 3 10 15 0 12 5 18 10 15
6 -3 10 -17 10 -30z m970 0 c6 -8 10 -20 8 -26 -2 -6 -12 0 -21 15 -18 27 -8
37 13 11z m-1086 -34 c6 -9 -26 -21 -54 -21 -9 1 -5 7 10 15 30 17 37 18 44 6z
m192 -13 c4 -6 3 -8 -4 -4 -5 3 -12 1 -14 -6 -3 -8 -7 -6 -11 5 -7 20 17 24
29 5z m804 -13 c0 -2 3 -12 7 -22 6 -14 1 -13 -24 7 -33 27 -34 47 -2 30 10
-6 19 -12 19 -15z m-1194 -2 c0 -10 5 -17 12 -15 8 1 11 -2 7 -8 -3 -5 -10
-10 -15 -10 -11 0 -21 30 -14 41 8 14 12 11 10 -8z m1314 3 c0 -3 -4 -8 -10
-11 -5 -3 -10 -1 -10 4 0 6 5 11 10 11 6 0 10 -2 10 -4z m98 -31 c-3 -3 -9 2
-12 12 -6 14 -5 15 5 6 7 -7 10 -15 7 -18z m-1317 -4 c-9 -6 -12 -20 -9 -40 4
-27 2 -31 -20 -31 -21 0 -23 3 -17 27 6 27 31 52 50 53 6 0 4 -4 -4 -9z m-81
-19 c7 2 15 -3 18 -11 3 -10 0 -12 -12 -8 -10 4 -15 3 -11 -3 11 -17 -7 -11
-21 8 -18 23 -18 37 0 23 8 -6 19 -10 26 -9z m170 -16 c6 -19 16 -37 23 -40 7
-2 5 -5 -4 -5 -9 -1 -22 6 -30 15 -8 10 -22 13 -38 10 -14 -3 -20 -3 -13 0 6
3 12 17 12 30 0 39 36 32 50 -10z m-193 -26 c15 -17 19 -30 14 -39 -7 -11 -13
-6 -25 17 -12 24 -24 69 -13 51 1 -2 12 -15 24 -29z m1357 -26 c4 -11 2 -12
-14 -1 -11 6 -20 15 -20 19 0 12 28 -3 34 -18z m-1234 1 c-14 -7 -27 -11 -30
-9 -6 7 22 24 40 23 9 0 5 -6 -10 -14z m-225 -16 c11 -17 -1 -21 -15 -4 -8 9
-8 15 -2 15 6 0 14 -5 17 -11z m245 -3 c0 -2 -8 -10 -17 -17 -16 -13 -17 -12
-4 4 13 16 21 21 21 13z m-147 -37 c-5 -16 -8 -18 -14 -7 -13 20 -11 38 5 32
8 -3 12 -13 9 -25z m87 17 c0 -8 3 -23 7 -33 3 -10 3 -15 -2 -11 -10 10 -37
-11 -29 -23 3 -5 0 -9 -5 -9 -6 0 -11 7 -11 15 0 8 -5 15 -11 15 -5 0 -7 5 -3
11 4 8 9 7 15 -2 7 -11 9 -11 10 -1 1 6 3 17 4 22 1 6 3 15 4 20 2 16 21 12
21 -4z m1503 -11 c-3 -9 -8 -14 -10 -11 -3 3 -2 9 2 15 9 16 15 13 8 -4z
m-1753 -5 c8 -5 11 -10 5 -10 -5 0 -17 5 -25 10 -8 5 -10 10 -5 10 6 0 17 -5
25 -10z m50 0 c0 -5 -2 -10 -4 -10 -3 0 -8 5 -11 10 -3 6 -1 10 4 10 6 0 11
-4 11 -10z m50 -15 c14 -19 14 -19 -2 -6 -10 7 -18 18 -18 24 0 6 1 8 3 6 1
-2 9 -13 17 -24z m1427 3 c-3 -8 -6 -5 -6 6 -1 11 2 17 5 13 3 -3 4 -12 1 -19z
m259 -2 c18 -18 18 -23 -1 -23 -8 0 -12 4 -9 9 3 4 0 8 -5 8 -6 0 -11 5 -11
10 0 14 9 12 26 -4z m-1626 -86 c0 -5 -5 -10 -11 -10 -5 0 -7 5 -4 10 3 6 8
10 11 10 2 0 4 -4 4 -10z m380 -8 c0 -5 -13 -7 -30 -4 -16 2 -30 6 -30 8 0 2
14 4 30 4 17 0 30 -4 30 -8z m-37 -29 c-7 -2 -21 -2 -30 0 -10 3 -4 5 12 5 17
0 24 -2 18 -5z m157 -13 c8 -5 11 -10 5 -10 -5 0 -17 5 -25 10 -8 5 -10 10 -5
10 6 0 17 -5 25 -10z m-638 -35 c-17 -35 -42 -54 -42 -33 0 6 8 21 18 32 16
20 16 20 0 7 -11 -8 -18 -9 -18 -3 0 8 15 17 57 31 2 1 -5 -15 -15 -34z m502
24 c14 -7 23 -16 20 -20 -3 -5 2 -6 11 -3 20 8 65 -14 65 -32 0 -17 -32 -27
-41 -13 -5 9 -11 8 -24 -4 -12 -13 -27 -15 -63 -11 -35 4 -43 3 -32 -5 21 -15
-4 -15 -32 0 -19 10 -20 9 -15 -10 3 -11 0 -24 -5 -28 -7 -3 -8 -1 -4 5 5 8
-1 12 -16 12 -18 0 -20 -2 -8 -10 8 -5 10 -10 5 -10 -6 0 -16 5 -23 12 -8 8
-12 8 -12 1 0 -6 -15 -10 -32 -9 -27 1 -34 -3 -36 -22 -2 -16 -8 -22 -18 -18
-8 3 -14 1 -14 -4 0 -6 -5 -10 -11 -10 -6 0 -8 12 -5 33 3 17 3 27 0 20 -3 -7
-13 -9 -22 -6 -15 6 -15 5 -3 -10 7 -9 9 -17 3 -17 -17 0 -33 27 -26 44 3 9 1
16 -5 16 -6 0 -12 -8 -12 -17 -1 -16 -2 -16 -6 -1 -2 9 3 30 11 46 19 37 76
55 173 54 40 0 75 3 78 8 3 5 12 7 20 4 7 -3 22 -1 32 5 22 13 18 13 47 0z
m921 -79 c-3 -5 -15 -10 -26 -10 -10 0 -19 -4 -19 -10 0 -5 -7 -7 -15 -3 -21
7 -13 14 27 23 18 4 34 8 36 9 2 1 0 -3 -3 -9z m279 3 c-5 -5 -12 -12 -16 -18
-4 -6 -8 -2 -8 8 0 9 7 17 17 17 9 0 12 -3 7 -7z m-1368 -72 c-3 -5 -19 -14
-36 -19 -25 -9 -30 -8 -30 5 0 8 6 13 13 10 8 -3 20 -1 28 4 18 11 32 11 25 0z
m-291 -21 c7 -22 21 -26 27 -8 3 7 7 5 11 -6 4 -11 3 -15 -4 -10 -12 7 -3 -48
13 -78 10 -20 28 -24 28 -7 0 6 9 1 19 -12 11 -13 17 -26 15 -28 -2 -3 -11 4
-19 15 -14 18 -14 17 -11 -13 2 -18 1 -33 -3 -33 -7 0 -49 86 -53 110 -2 8 -5
17 -8 20 -14 14 -38 70 -30 70 5 0 12 -9 15 -20z m715 -53 c11 -4 11 -6 -3 -6
-20 -1 -50 23 -40 33 3 3 11 0 17 -8 6 -8 18 -16 26 -19z m-400 8 c-7 -8 -20
-15 -28 -15 -13 0 -12 3 4 15 25 19 40 19 24 0z m-160 -15 c0 -5 -4 -10 -10
-10 -5 0 -10 5 -10 10 0 6 5 10 10 10 6 0 10 -4 10 -10z m490 -15 c0 -2 -6 -5
-13 -8 -8 -3 -14 1 -14 8 0 7 6 11 14 8 7 -3 13 -6 13 -8z m450 -13 c3 -3 -6
-1 -20 2 -21 6 -22 5 -7 -4 9 -6 15 -16 11 -21 -4 -6 -13 -3 -23 8 -12 13 -14
21 -7 29 10 11 17 9 46 -14z m115 18 c3 -5 1 -10 -4 -10 -6 0 -11 5 -11 10 0
6 2 10 4 10 3 0 8 -4 11 -10z m-965 -26 c34 -13 35 -13 7 -14 -16 0 -35 7 -44
15 -21 21 -27 12 -13 -17 11 -22 10 -22 -4 -4 -11 13 -16 15 -16 6 0 -7 -2
-11 -5 -9 -2 3 -2 15 2 28 4 16 10 20 22 15 9 -4 32 -13 51 -20z m517 20 c-3
-3 -12 -4 -19 -1 -8 3 -5 6 6 6 11 1 17 -2 13 -5z m-101 -13 c-4 -5 0 -12 6
-15 9 -4 8 -5 -2 -5 -29 2 -41 -1 -36 -10 8 -13 -37 -22 -49 -10 -7 7 -4 8 8
4 11 -5 17 -2 17 8 0 12 25 28 58 36 2 1 1 -3 -2 -8z m214 -5 c-10 -13 -40
-12 -40 1 0 3 7 3 15 -1 8 -3 15 -1 15 4 0 6 5 10 11 10 8 0 8 -4 -1 -14z
m270 -35 c-10 -20 -60 -31 -60 -12 0 4 12 7 28 5 15 -2 21 -1 14 2 -10 5 -9 9
5 19 23 17 28 12 13 -14z m-140 -6 c7 -9 8 -15 2 -15 -5 0 -12 7 -16 15 -3 8
-4 15 -2 15 2 0 9 -7 16 -15z m35 5 c3 -5 2 -10 -4 -10 -5 0 -13 5 -16 10 -3
6 -2 10 4 10 5 0 13 -4 16 -10z m-159 -15 c-6 -6 -24 -16 -40 -23 -25 -11 -28
-11 -23 3 5 10 0 15 -13 15 -11 0 -20 3 -20 8 0 4 24 7 53 7 37 0 50 -3 43
-10z m363 -6 c-22 -14 -33 -10 -19 6 7 8 17 12 22 9 6 -4 5 -10 -3 -15z m-657
-24 c-3 -5 -7 -4 -10 3 -3 10 -7 10 -18 1 -17 -14 -19 2 -3 18 13 13 41 -6 31
-22z m158 15 c9 -17 8 -20 -10 -20 -14 0 -19 4 -14 13 6 9 5 9 -8 0 -19 -16
-31 -6 -15 13 17 19 35 17 47 -6z m442 13 c-6 -2 -9 -10 -6 -15 4 -7 2 -8 -4
-4 -18 11 -14 26 6 25 10 0 12 -3 4 -6z m-692 -13 c0 -5 -5 -10 -11 -10 -5 0
-7 5 -4 10 3 6 8 10 11 10 2 0 4 -4 4 -10z m-370 -10 c0 -5 -2 -10 -4 -10 -3
0 -8 5 -11 10 -3 6 -1 10 4 10 6 0 11 -4 11 -10z m400 0 c0 -5 -4 -10 -10 -10
-5 0 -10 5 -10 10 0 6 5 10 10 10 6 0 10 -4 10 -10z m385 -8 c-3 -3 -11 0 -18
7 -9 10 -8 11 6 5 10 -3 15 -9 12 -12z m72 2 c-3 -3 -12 -4 -19 -1 -8 3 -5 6
6 6 11 1 17 -2 13 -5z"/>
<path d="M2552 2740 c0 -14 2 -19 5 -12 2 6 2 18 0 25 -3 6 -5 1 -5 -13z"/>
<path d="M1410 2729 c0 -5 5 -7 10 -4 6 3 10 8 10 11 0 2 -4 4 -10 4 -5 0 -10
-5 -10 -11z"/>
<path d="M1505 2599 c-11 -17 0 -20 21 -4 17 13 17 14 2 15 -9 0 -20 -5 -23
-11z"/>
<path d="M1450 2550 c0 -5 5 -10 10 -10 6 0 10 5 10 10 0 6 -4 10 -10 10 -5 0
-10 -4 -10 -10z"/>
<path d="M2155 2270 c-19 -8 -19 -9 3 -9 12 -1 22 4 22 9 0 6 -1 10 -2 9 -2 0
-12 -4 -23 -9z"/>
<path d="M2140 2236 c0 -8 4 -17 8 -20 4 -2 8 4 8 15 0 10 -4 19 -8 19 -4 0
-8 -6 -8 -14z"/>
<path d="M1837 483 c-4 -3 -7 -33 -7 -65 0 -74 13 -80 86 -45 62 31 96 34 118
11 39 -38 -5 -92 -64 -79 l-30 7 0 -66 c0 -77 3 -79 110 -74 l65 3 3 158 3
157 -139 0 c-76 0 -142 -3 -145 -7z m271 -150 l3 -143 -74 0 c-41 0 -76 2 -78
4 -2 3 -3 25 -1 50 4 44 5 46 36 46 39 0 69 28 69 65 0 60 -58 78 -132 41 -75
-38 -81 -36 -81 29 l0 56 128 -3 127 -3 3 -142z"/>
<path d="M1936 361 c-30 -16 -65 -31 -78 -33 -21 -3 -23 -9 -26 -75 -3 -79 -6
-75 58 -76 24 -1 25 2 28 68 3 73 12 88 49 79 52 -13 88 32 44 56 -15 8 -31 3
-75 -19z m78 0 c3 -5 -1 -14 -8 -21 -11 -9 -20 -9 -37 0 -17 10 -19 14 -8 21
18 11 46 11 53 0z m-112 -106 c-4 -61 -5 -65 -28 -65 -23 0 -24 3 -24 59 0 59
5 68 40 70 12 1 14 -11 12 -64z"/>
<path d="M1224 236 c-3 -8 -4 -25 -2 -38 2 -18 10 -24 36 -26 18 -2 32 1 32 7
0 6 -11 11 -25 11 -34 0 -32 18 3 23 l27 4 -27 2 c-16 0 -28 5 -28 10 0 5 12
12 28 14 25 4 24 4 -6 6 -20 0 -35 -4 -38 -13z"/>
<path d="M1300 210 c0 -36 3 -40 24 -40 14 0 27 4 31 10 3 5 12 7 20 3 11 -4
15 3 15 27 0 21 4 30 13 27 6 -2 11 -16 10 -31 -1 -14 2 -26 8 -26 5 0 9 10 9
23 0 13 5 28 12 35 9 9 4 12 -24 12 -20 0 -38 -6 -41 -12 -4 -10 -7 -10 -18 0
-7 6 -23 12 -36 12 -20 0 -23 -5 -23 -40z m47 19 c16 -16 5 -39 -18 -39 -12 0
-19 7 -19 18 0 31 17 41 37 21z"/>
<path d="M1462 238 c-18 -18 -14 -46 7 -58 27 -14 37 -13 55 6 15 14 16 14 17
-3 0 -15 2 -14 9 5 11 26 28 29 38 5 4 -10 15 -19 25 -19 14 -2 17 6 16 40 -2
30 -3 33 -6 14 -2 -16 -9 -28 -15 -28 -5 0 -8 6 -5 14 7 19 -12 36 -40 36 -14
0 -23 -6 -23 -16 0 -14 -1 -14 -16 0 -18 19 -45 21 -62 4z m47 -7 c19 -12 6
-41 -19 -41 -13 0 -20 7 -20 18 0 31 14 39 39 23z m78 -7 c-3 -3 -12 -4 -19
-1 -8 3 -5 6 6 6 11 1 17 -2 13 -5z"/>
<path d="M1656 222 c-22 -43 -21 -55 5 -42 15 9 24 8 36 -2 15 -12 16 -10 9
17 -4 17 -13 36 -21 44 -11 11 -16 9 -29 -17z m29 -12 c3 -5 1 -10 -4 -10 -6
0 -11 5 -11 10 0 6 2 10 4 10 3 0 8 -4 11 -10z"/>
<path d="M1726 238 c-15 -32 -3 -63 27 -66 15 -2 27 1 27 7 0 6 -9 11 -19 11
-15 0 -21 8 -23 33 -3 24 -6 28 -12 15z"/>
<path d="M2170 208 c0 -35 2 -39 13 -26 6 8 22 18 35 21 17 4 22 1 23 -16 0
-22 0 -22 9 1 10 24 40 31 40 8 0 -14 29 -26 63 -26 9 0 17 5 17 10 0 6 -9 10
-20 10 -28 0 -25 20 3 21 21 1 21 1 -3 8 l-25 7 25 8 25 9 -24 4 c-13 3 -27 0
-30 -6 -4 -6 -12 -7 -21 -1 -21 14 -60 12 -60 -2 0 -9 -3 -9 -12 0 -7 7 -22
12 -35 12 -20 0 -23 -5 -23 -42z m42 10 c-9 -9 -15 -9 -24 0 -9 9 -7 12 12 12
19 0 21 -3 12 -12z m71 5 c-7 -2 -19 -2 -25 0 -7 3 -2 5 12 5 14 0 19 -2 13
-5z m37 -13 c0 -5 -4 -10 -10 -10 -5 0 -10 5 -10 10 0 6 5 10 10 10 6 0 10 -4
10 -10z"/>
<path d="M2397 243 c-14 -13 -7 -33 11 -33 22 0 34 -9 26 -21 -3 -5 -14 -4
-25 1 -13 8 -19 7 -19 0 0 -16 31 -24 49 -13 10 6 24 7 32 3 8 -4 23 -4 34 1
19 7 19 8 -2 8 -13 1 -23 5 -23 10 0 5 10 12 23 14 l22 4 -22 2 c-13 0 -23 5
-23 10 0 5 10 12 23 14 16 3 13 5 -10 6 -26 1 -33 -3 -33 -18 0 -14 -6 -17
-25 -13 -14 2 -25 9 -25 14 0 5 9 6 20 3 11 -4 20 -2 20 4 0 12 -43 15 -53 4z"/>
<path d="M2537 243 c-11 -10 -8 -63 3 -63 6 0 10 10 10 23 l0 22 19 -25 c16
-20 21 -22 35 -11 9 7 16 9 16 3 0 -12 40 -23 54 -15 19 12 69 13 82 2 18 -15
18 -7 0 36 -18 42 -30 44 -45 8 -9 -22 -19 -29 -46 -30 -31 -3 -35 0 -35 22 0
28 26 34 49 13 11 -11 13 -10 9 2 -6 19 -58 26 -69 8 -7 -10 -9 -10 -9 0 0 22
-20 12 -20 -10 l-1 -23 -18 23 c-21 24 -24 25 -34 15z m203 -33 c0 -5 -2 -10
-4 -10 -3 0 -8 5 -11 10 -3 6 -1 10 4 10 6 0 11 -4 11 -10z"/>
</g>
</svg>
